<svg id="Warstwa_2" data-name="Warstwa 2" xmlns="http://www.w3.org/2000/svg" viewBox="0 0 261.61 315.51"><defs><style>.cls-1,.cls-3,.cls-4,.cls-5{fill:none;}.cls-1,.cls-2,.cls-3,.cls-4,.cls-5{stroke:#000;stroke-miterlimit:10;}.cls-1,.cls-2,.cls-5{stroke-width:10px;}.cls-3{stroke-width:9px;}.cls-4{stroke-width:8px;}.cls-5{stroke-linecap:round;}</style></defs><line class="cls-1" x1="45.74" y1="66.36" x2="174.24" y2="66.86"/><line class="cls-1" x1="29.75" y1="66.24" x2="39.87" y2="66.24"/><polygon class="cls-2" points="144.33 198.72 207.83 307.76 220.18 300.69 156.67 191.66 144.33 198.72"/><ellipse class="cls-2" cx="425.13" cy="273.81" rx="27.32" ry="41.3" transform="translate(-368.43 91.57) rotate(-24.73)"/><line class="cls-1" x1="45.54" y1="92.13" x2="129.38" y2="92.46"/><line class="cls-1" x1="45.54" y1="117.91" x2="142.62" y2="118.29"/><line class="cls-1" x1="45.74" y1="143.69" x2="166.7" y2="144.16"/><line class="cls-1" x1="45.74" y1="169.47" x2="174.24" y2="169.97"/><polygon class="cls-3" points="170.89 4.5 4.5 4.5 4.5 284.63 216 284.63 216 44.75 170.89 4.5"/><line class="cls-1" x1="170.89" y1="4.5" x2="170.89" y2="41.25"/><line class="cls-4" x1="216" y1="44.75" x2="165.88" y2="44.75"/><polygon class="cls-2" points="195.04 188.39 122.66 300.34 135.08 308.55 207.46 196.61 195.04 188.39"/><path class="cls-2" d="M483.26,299l19.47,12.45a6.88,6.88,0,0,0,9.42-1.83l9.91-14.82a6.55,6.55,0,0,0-2-9.18l-19.47-12.45a6.88,6.88,0,0,0-9.42,1.83l-9.91,14.82A6.55,6.55,0,0,0,483.26,299Z" transform="translate(-292.88 -111.38)"/><line class="cls-5" x1="224.85" y1="120.86" x2="187.58" y2="180"/><line class="cls-5" x1="240.68" y1="130.66" x2="203.41" y2="189.8"/><line class="cls-5" x1="256.61" y1="140.28" x2="219.35" y2="199.42"/><line class="cls-1" x1="45.24" y1="195.27" x2="173.74" y2="195.77"/><line class="cls-1" x1="29.75" y1="92.07" x2="39.87" y2="92.07"/></svg>