<svg id="Warstwa_2" data-name="Warstwa 2" xmlns="http://www.w3.org/2000/svg" viewBox="0 0 351.66 314.63"><defs><style>.cls-1,.cls-2{fill:none;}.cls-1,.cls-2,.cls-3{stroke:#000;}.cls-1,.cls-3{stroke-miterlimit:10;stroke-width:13px;}.cls-2,.cls-5{stroke-linecap:round;stroke-linejoin:round;stroke-width:11px;}.cls-4,.cls-5{fill:#fff;}.cls-5{stroke:#fff;}</style></defs><rect class="cls-1" x="6.5" y="85.88" width="153.19" height="222.25" rx="15.6"/><rect class="cls-1" x="29" y="56.75" width="107.5" height="29.13"/><path class="cls-1" d="M356,140.63c-39.47,0-71.95,19.63-76.06,44.83a4.7,4.7,0,0,0,4.64,5.42H427.42a4.7,4.7,0,0,0,4.64-5.42C428,160.26,395.47,140.63,356,140.63Z" transform="translate(-271.75 -134.13)"/><ellipse cx="84.37" cy="31.63" rx="7.84" ry="7.38"/><ellipse cx="57.28" cy="31.63" rx="7.84" ry="7.38"/><ellipse cx="111.47" cy="31.63" rx="7.84" ry="7.38"/><line class="cls-2" x1="42.13" y1="275.13" x2="42.13" y2="115.13"/><line class="cls-2" x1="83.1" y1="274.63" x2="83.1" y2="114.63"/><line class="cls-2" x1="122" y1="275.13" x2="122" y2="115.13"/><rect class="cls-3" x="191.28" y="85.88" width="153.19" height="222.25" rx="15.6"/><rect class="cls-1" x="213.78" y="56.75" width="107.5" height="29.13"/><path class="cls-3" d="M540.78,140.63c-39.46,0-71.95,19.63-76.06,44.83a4.7,4.7,0,0,0,4.65,5.42H612.2a4.7,4.7,0,0,0,4.65-5.42C612.74,160.26,580.25,140.63,540.78,140.63Z" transform="translate(-271.75 -134.13)"/><ellipse class="cls-4" cx="269.16" cy="31.63" rx="7.84" ry="7.38"/><ellipse class="cls-4" cx="242.07" cy="31.63" rx="7.84" ry="7.38"/><ellipse class="cls-4" cx="296.25" cy="31.63" rx="7.84" ry="7.38"/><line class="cls-5" x1="226.91" y1="275.13" x2="226.91" y2="115.13"/><line class="cls-5" x1="267.88" y1="274.63" x2="267.88" y2="114.63"/><line class="cls-5" x1="306.78" y1="275.13" x2="306.78" y2="115.13"/></svg>