<?xml version="1.0" encoding="utf-8"?>
<!-- Generator: Adobe Illustrator 24.1.1, SVG Export Plug-In . SVG Version: 6.00 Build 0)  -->
<svg version="1.1" id="Warstwa_1" xmlns="http://www.w3.org/2000/svg" xmlns:xlink="http://www.w3.org/1999/xlink" x="0px" y="0px"
	 viewBox="0 0 213.5 257.5" style="enable-background:new 0 0 213.5 257.5;" xml:space="preserve">
<style type="text/css">
	.st0{fill:#005A00;}
	.st1{fill:none;stroke:#005A00;stroke-width:12;stroke-miterlimit:10;}
</style>
<g id="Warstwa_2_1_">
	<path class="st0" d="M127.4,33C105.7-5.7,72.5,0.3,72.5,0.3C69.3,0,31.9,3.3,18.3,45.7c-13.8,43.1,57.1,117,57.1,117
		c35.9-42.8,49.1-73.1,55.5-91.2C135.3,58.7,134.1,44.7,127.4,33z M75,96.5c-23.4,0-42.4-17.7-42.4-39.6s19-39.6,42.4-39.6
		s42.4,17.7,42.4,39.6S98.4,96.5,75,96.5z"/>
	<path class="st0" d="M75,26.5c-17.2,0-31.2,13-31.2,29.1s14,29.1,31.2,29.1s31.2-13,31.2-29.1S92.3,26.5,75,26.5z M75,73.3
		c-10.4,0-18.9-7.9-18.9-17.6S64.6,38,75,38s18.9,7.9,18.9,17.6S85.4,73.3,75,73.3L75,73.3z"/>
	<path class="st1" d="M142.1,128.3l-48-29.1c-12,7.2-27,7-38.9-0.4L6,128.3v120.3c0,0.2,0.2,0.4,0.4,0.4c0.1,0,0.1,0,0.2,0L71,215.3
		l71.1,35.5l65.4-30V88.1c0-0.2-0.2-0.4-0.4-0.4c-0.1,0-0.2,0-0.2,0.1L142.1,128.3z"/>
</g>
</svg>
