<?xml version="1.0" encoding="utf-8"?>
<!-- Generator: Adobe Illustrator 24.1.1, SVG Export Plug-In . SVG Version: 6.00 Build 0)  -->
<svg version="1.1" id="Warstwa_2_1_" xmlns="http://www.w3.org/2000/svg" xmlns:xlink="http://www.w3.org/1999/xlink" x="0px"
	 y="0px" viewBox="0 0 261.6 315.5" style="enable-background:new 0 0 261.6 315.5;" xml:space="preserve">
<style type="text/css">
	.st0{fill:none;stroke:#086F00;stroke-width:10;stroke-miterlimit:10;}
	.st1{fill:#086F00;stroke:#086F00;stroke-width:10;stroke-miterlimit:10;}
	.st2{fill:#086F00;stroke:#086F00;stroke-width:9;stroke-miterlimit:10;}
	.st3{fill:none;stroke:#086F00;stroke-width:9;stroke-miterlimit:10;}
	.st4{fill:none;stroke:#086F00;stroke-width:8;stroke-miterlimit:10;}
	.st5{fill:none;stroke:#086F00;stroke-width:10;stroke-linecap:round;stroke-miterlimit:10;}
</style>
<line class="st0" x1="45.7" y1="66.4" x2="174.2" y2="66.9"/>
<line class="st0" x1="29.8" y1="66.2" x2="39.9" y2="66.2"/>
<polygon class="st1" points="144.3,198.7 207.8,307.8 220.2,300.7 156.7,191.7 "/>
<ellipse transform="matrix(0.9083 -0.4183 0.4183 0.9083 -55.8172 70.2245)" class="st2" cx="132.3" cy="162.4" rx="27.3" ry="41.3"/>
<line class="st0" x1="45.5" y1="92.1" x2="129.4" y2="92.5"/>
<line class="st0" x1="45.5" y1="117.9" x2="142.6" y2="118.3"/>
<line class="st0" x1="45.7" y1="143.7" x2="166.7" y2="144.2"/>
<line class="st0" x1="45.7" y1="169.5" x2="174.2" y2="170"/>
<polygon class="st3" points="170.9,4.5 4.5,4.5 4.5,284.6 216,284.6 216,44.8 "/>
<line class="st0" x1="170.9" y1="4.5" x2="170.9" y2="41.3"/>
<line class="st4" x1="216" y1="44.8" x2="165.9" y2="44.8"/>
<polygon class="st2" points="195,188.4 122.7,300.3 135.1,308.6 207.5,196.6 "/>
<path class="st2" d="M190.4,187.6l19.5,12.5c3.1,2,7.3,1.2,9.4-1.8l9.9-14.8c2-3,1.2-7.1-1.8-9.1c-0.1,0-0.1-0.1-0.2-0.1l-19.5-12.5
	c-3.1-2-7.3-1.2-9.4,1.8l-9.9,14.8c-2,3-1.2,7.1,1.8,9.1C190.3,187.6,190.3,187.6,190.4,187.6z"/>
<line class="st5" x1="224.9" y1="120.9" x2="187.6" y2="180"/>
<line class="st5" x1="240.7" y1="130.7" x2="203.4" y2="189.8"/>
<line class="st5" x1="256.6" y1="140.3" x2="219.4" y2="199.4"/>
<line class="st0" x1="45.2" y1="195.3" x2="173.7" y2="195.8"/>
<line class="st0" x1="29.8" y1="92.1" x2="39.9" y2="92.1"/>
</svg>
