<?xml version="1.0" encoding="utf-8"?>
<!-- Generator: Adobe Illustrator 24.1.1, SVG Export Plug-In . SVG Version: 6.00 Build 0)  -->
<svg version="1.1" id="Warstwa_2_1_" xmlns="http://www.w3.org/2000/svg" xmlns:xlink="http://www.w3.org/1999/xlink" x="0px"
	 y="0px" viewBox="0 0 351.7 314.6" style="enable-background:new 0 0 351.7 314.6;" xml:space="preserve">
<style type="text/css">
	.st0{fill:none;stroke:#116D11;stroke-width:13;stroke-miterlimit:10;}
	.st1{fill:#116D11;}
	.st2{fill:none;stroke:#116D11;stroke-width:11;stroke-linecap:round;stroke-linejoin:round;}
	.st3{fill:#116D11;stroke:#116D11;stroke-width:13;stroke-miterlimit:10;}
	.st4{fill:#FFFFFF;}
	.st5{fill:none;stroke:#FFFFFF;stroke-width:11;stroke-linecap:round;stroke-linejoin:round;}
</style>
<path class="st0" d="M22.1,85.9h122c8.6,0,15.6,7,15.6,15.6v191.1c0,8.6-7,15.6-15.6,15.6h-122c-8.6,0-15.6-7-15.6-15.6V101.5
	C6.5,92.9,13.5,85.9,22.1,85.9z"/>
<rect x="29" y="56.8" class="st0" width="107.5" height="29.1"/>
<path class="st0" d="M84.3,6.5c-39.5,0-72,19.6-76.1,44.8c-0.4,2.6,1.4,5,3.9,5.4c0.2,0,0.5,0.1,0.7,0.1h142.8
	c2.6,0,4.7-2.1,4.7-4.7c0-0.2,0-0.5-0.1-0.7C156.3,26.1,123.7,6.5,84.3,6.5z"/>
<ellipse class="st1" cx="84.4" cy="31.6" rx="7.8" ry="7.4"/>
<ellipse class="st1" cx="57.3" cy="31.6" rx="7.8" ry="7.4"/>
<ellipse class="st1" cx="111.5" cy="31.6" rx="7.8" ry="7.4"/>
<line class="st2" x1="42.1" y1="275.1" x2="42.1" y2="115.1"/>
<line class="st2" x1="83.1" y1="274.6" x2="83.1" y2="114.6"/>
<line class="st2" x1="122" y1="275.1" x2="122" y2="115.1"/>
<path class="st3" d="M206.9,85.9h122c8.6,0,15.6,7,15.6,15.6v191.1c0,8.6-7,15.6-15.6,15.6h-122c-8.6,0-15.6-7-15.6-15.6V101.5
	C191.3,92.9,198.3,85.9,206.9,85.9z"/>
<rect x="213.8" y="56.8" class="st0" width="107.5" height="29.1"/>
<path class="st3" d="M269,6.5c-39.5,0-72,19.6-76.1,44.8c-0.4,2.6,1.4,5,3.9,5.4c0.2,0,0.5,0.1,0.7,0.1h142.8c2.6,0,4.7-2.1,4.7-4.7
	c0-0.2,0-0.5-0.1-0.7C341,26.1,308.5,6.5,269,6.5z"/>
<ellipse class="st4" cx="269.2" cy="31.6" rx="7.8" ry="7.4"/>
<ellipse class="st4" cx="242.1" cy="31.6" rx="7.8" ry="7.4"/>
<ellipse class="st4" cx="296.3" cy="31.6" rx="7.8" ry="7.4"/>
<line class="st5" x1="226.9" y1="275.1" x2="226.9" y2="115.1"/>
<line class="st5" x1="267.9" y1="274.6" x2="267.9" y2="114.6"/>
<line class="st5" x1="306.8" y1="275.1" x2="306.8" y2="115.1"/>
</svg>
