<svg xmlns="http://www.w3.org/2000/svg" viewBox="0 0 213.5 257.48"><defs><style>.cls-1{fill:none;stroke:#000;stroke-miterlimit:10;stroke-width:12px;}</style></defs><g id="Warstwa_2" data-name="Warstwa 2"><path d="M408.94,154.63C387.24,116,354,122,354,122c-3.21-.38-40.6,2.95-54.21,45.35-13.83,43.07,57.08,117,57.08,117,35.94-42.84,49.14-73.08,55.47-91.21A46.8,46.8,0,0,0,408.94,154.63ZM356.5,218.16c-23.43,0-42.42-17.72-42.42-39.57S333.07,139,356.5,139s42.43,17.72,42.43,39.58S379.94,218.16,356.5,218.16Z" transform="translate(-281.5 -121.67)"/><path d="M356.5,148.19c-17.24,0-31.22,13-31.22,29.13s14,29.13,31.22,29.13,31.23-13,31.23-29.13S373.75,148.19,356.5,148.19Zm0,46.76c-10.43,0-18.89-7.9-18.89-17.63s8.46-17.63,18.89-17.63,18.9,7.89,18.9,17.63S366.94,195,356.5,195Z" transform="translate(-281.5 -121.67)"/><path class="cls-1" d="M423.65,250l-48-29.07a37.5,37.5,0,0,1-38.93-.36L287.5,250V370.29a.43.43,0,0,0,.63.38L352.55,337l71.1,35.5,65.35-30V209.81a.43.43,0,0,0-.66-.36Z" transform="translate(-281.5 -121.67)"/></g></svg>