<svg width="443.294" height="443.294" xmlns="http://www.w3.org/2000/svg">

 <g>
  <title>background</title>
  <rect fill="none" id="canvas_background" height="402" width="582" y="-1" x="-1"/>
 </g>
 <g>
  <title>Layer 1</title>
  <path fill="#ffffff" id="svg_1" d="m221.647,0c-122.214,0 -221.647,99.433 -221.647,221.647s99.433,221.647 221.647,221.647s221.647,-99.433 221.647,-221.647s-99.433,-221.647 -221.647,-221.647zm0,415.588c-106.941,0 -193.941,-87 -193.941,-193.941s87,-193.941 193.941,-193.941s193.941,87 193.941,193.941s-87,193.941 -193.941,193.941z"/>
  <path fill="#ffffff" id="svg_2" d="m235.5,83.118l-27.706,0l0,144.265l87.176,87.176l19.589,-19.589l-79.059,-79.059l0,-132.793z"/>
 </g>
</svg>