<svg xmlns="http://www.w3.org/2000/svg" version="1.0" width="640.000000" height="640.000000" preserveAspectRatio="xMidYMid meet"><rect id="backgroundrect" width="100%" height="100%" x="0" y="0" fill="none" stroke="none"/>


<g class="currentLayer" style=""><title>Layer 1</title><g transform="translate(0,640) scale(0.10000000149011612,-0.10000000149011612) " fill="#ffffff" stroke="none" id="svg_1" class="" fill-opacity="1">
<path d="M3796.130081176758,5690.000000000001 c-20,-11 -60,-46 -88,-79 c-62,-71 -90,-81 -152,-52 c-67,30 -95,34 -144,21 c-55,-16 -87,-54 -108,-130 c-8,-30 -18,-66 -22,-80 c-21,-74 -92,-134 -202,-171 c-37,-12 -79,-35 -94,-50 c-25,-24 -28,-35 -28,-89 c0,-78 15,-107 102,-197 l70,-72 l-39,-10 c-21,-6 -49,-11 -63,-11 c-37,-1 -105,-34 -124,-61 c-18,-26 -21,-94 -7,-132 c6,-14 43,-58 84,-99 c41,-41 78,-85 82,-98 c9,-27 -8,-42 -89,-83 c-28,-14 -67,-42 -85,-61 c-28,-29 -35,-45 -39,-89 c-3,-37 1,-63 12,-85 c17,-34 92,-88 196,-142 c110,-57 203,-122 257,-180 c28,-30 92,-98 141,-151 l90,-97 l1,-58 c0,-33 0,-88 -1,-124 c-4,-200 -4,-208 18,-237 c43,-58 79,-73 175,-73 c66,0 103,6 146,21 c66,25 151,77 204,124 c20,18 52,36 70,40 c34,7 88,35 190,96 c111,68 284,137 314,125 c7,-2 29,-29 48,-58 c59,-92 163,-167 253,-182 c80,-14 154,38 154,108 c0,50 7,55 52,39 c134,-46 326,-35 438,25 c75,40 90,63 90,137 c0,70 -1,71 -103,142 c-26,18 -47,37 -47,42 c0,6 26,28 58,50 c130,89 159,157 107,255 l-24,46 l23,0 c55,0 143,57 170,109 c20,37 29,113 22,165 c-9,59 -59,115 -141,157 c-36,19 -65,36 -65,39 c0,4 15,11 33,18 c60,22 116,70 128,113 c26,84 -17,142 -161,222 c-36,19 -77,48 -92,64 l-27,28 l27,55 c62,125 28,310 -70,383 c-44,32 -95,39 -200,26 c-106,-14 -120,-8 -163,75 c-33,64 -56,83 -112,92 c-55,8 -110,-9 -172,-56 c-29,-22 -69,-48 -89,-57 c-48,-23 -125,-20 -185,6 c-33,14 -69,21 -115,21 c-57,0 -69,-3 -93,-26 c-22,-21 -40,-27 -110,-33 c-97,-10 -107,-8 -115,28 c-14,71 -27,102 -59,144 c-39,51 -101,97 -154,115 c-51,18 -131,14 -173,-8 zm185,-169 c37,-34 52,-64 66,-132 c8,-40 21,-64 42,-85 c30,-29 32,-29 148,-29 l118,0 l11,-80 c6,-44 9,-81 8,-82 c-1,-2 -34,13 -72,33 c-87,44 -137,52 -185,27 l-35,-19 l-28,28 c-29,30 -124,96 -166,115 c-45,21 -146,53 -166,53 c-38,0 -64,-28 -64,-70 c0,-46 14,-58 105,-89 c130,-45 257,-161 300,-276 c15,-37 16,-50 5,-74 c-14,-36 -28,-39 -100,-28 c-30,5 -83,9 -117,10 l-62,2 l-39,60 c-38,58 -161,185 -212,219 c-29,19 -91,21 -108,4 c-7,-7 -12,-31 -12,-54 c0,-38 4,-46 43,-75 c137,-105 208,-210 267,-394 c7,-22 25,-67 40,-100 c52,-118 100,-259 100,-297 c0,-5 -27,20 -59,55 c-33,34 -97,89 -143,120 c-68,46 -92,57 -125,57 c-50,0 -65,-17 -61,-67 c3,-35 9,-42 106,-112 c112,-81 166,-145 214,-255 c25,-55 26,-63 13,-93 c-25,-60 -168,-263 -186,-263 c-9,0 -199,200 -199,210 c0,10 -125,110 -175,139 c-22,13 -69,40 -105,59 c-73,39 -160,92 -160,98 c0,2 27,17 60,34 c69,35 125,81 146,121 c7,15 14,52 14,82 c0,65 -30,118 -115,199 l-57,54 l74,13 c123,22 168,59 168,138 c0,61 -27,106 -109,188 c-39,38 -71,74 -71,80 c0,6 21,17 48,24 c143,42 239,137 277,274 c25,92 27,97 40,97 c6,0 27,-8 46,-17 c18,-9 57,-19 87,-21 c81,-7 132,18 218,105 l73,74 l33,-17 c18,-9 46,-28 61,-43 zm1082,-156 c14,-30 41,-66 58,-79 c64,-47 113,-53 268,-30 c44,6 47,5 73,-29 c41,-54 46,-123 12,-186 c-21,-41 -26,-64 -26,-121 l0,-71 l53,-52 c28,-29 89,-73 134,-98 l82,-46 l-69,-33 c-100,-48 -125,-78 -125,-145 c0,-67 16,-87 115,-133 c122,-58 151,-97 114,-151 c-26,-36 -74,-51 -171,-51 c-105,0 -133,-17 -133,-83 c0,-42 16,-62 110,-137 l44,-36 l-81,-57 c-99,-70 -116,-94 -117,-168 c-1,-50 3,-63 30,-96 c17,-21 50,-48 72,-61 c23,-13 40,-27 37,-32 c-3,-5 -30,-18 -61,-29 c-71,-27 -162,-27 -234,-1 c-68,25 -175,27 -208,4 c-29,-20 -52,-66 -52,-104 c0,-34 0,-33 -33,-21 c-38,15 -94,68 -133,127 c-50,76 -84,94 -175,94 c-105,0 -225,-44 -395,-146 c-140,-83 -181,-97 -294,-97 c-112,1 -190,25 -246,78 c-50,47 -51,44 126,285 c84,114 124,194 150,298 c45,179 14,368 -104,624 c-14,31 -27,67 -29,80 c-2,19 2,22 23,20 c14,-2 69,-6 122,-9 c87,-4 101,-3 132,16 c20,13 44,41 57,68 c20,42 21,55 15,159 c-3,63 -4,114 -1,114 c3,0 33,-14 66,-32 c78,-40 142,-47 187,-19 c49,31 55,58 47,209 c-6,134 -3,160 18,144 c32,-23 109,-37 207,-37 c100,0 108,2 166,33 c34,19 77,46 95,62 c19,16 37,29 40,30 c4,0 19,-25 34,-55 zm-1298,-2180 c35,-11 63,-23 63,-27 c0,-22 -110,-29 -134,-9 c-19,16 -22,64 -3,59 c6,-2 40,-13 74,-23 z" id="svg_2" fill="#ffffff" fill-opacity="1"/>
<path d="M2347.130081176758,4691.000000000001 c-53,-54 -40,-95 65,-192 l70,-66 l-82,-7 c-241,-20 -477,-100 -674,-228 c-139,-91 -308,-255 -405,-395 c-62,-88 -146,-262 -182,-377 c-32,-98 -61,-274 -61,-370 l-1,-51 l-72,76 c-78,83 -102,99 -142,99 c-40,0 -85,-50 -85,-95 c0,-33 13,-50 139,-183 c77,-81 167,-174 200,-207 l61,-59 l61,59 c33,33 123,126 200,207 c126,133 139,150 139,183 c0,45 -45,95 -85,95 c-40,0 -64,-16 -147,-104 l-77,-81 l-1,66 c0,132 44,312 115,467 c179,386 603,678 1015,698 l105,5 l-81,-78 c-88,-85 -104,-108 -104,-148 c0,-40 50,-85 95,-85 c33,0 50,13 183,139 c81,77 174,167 207,200 l59,61 l-59,61 c-33,33 -126,123 -207,200 c-133,126 -150,139 -183,139 c-27,0 -44,-8 -66,-29 z" id="svg_3" fill="#ffffff" fill-opacity="1"/>
<path d="M2827.130081176758,3361.000000000001 c-51,-11 -124,-56 -152,-94 c-47,-62 -57,-93 -57,-175 l0,-78 l-92,-70 c-51,-38 -130,-98 -174,-132 l-81,-63 l-36,24 c-74,50 -209,46 -285,-9 c-153,-109 -401,-205 -531,-204 c-75,0 -314,-68 -436,-124 c-255,-118 -455,-305 -554,-517 c-68,-146 -85,-223 -84,-389 c0,-121 3,-157 22,-215 c81,-259 270,-440 531,-510 c96,-26 306,-32 411,-11 c96,19 237,68 291,103 c21,12 41,23 44,23 c15,0 183,133 230,182 c65,68 131,150 174,213 c37,56 128,231 148,285 c57,157 166,313 298,428 c59,50 76,72 93,117 c25,65 26,105 7,168 l-14,45 l62,49 c49,40 141,112 263,205 c7,6 34,3 69,-8 c101,-29 201,-8 281,60 c63,55 93,123 93,215 c0,116 -12,146 -89,221 c-36,35 -74,83 -84,105 c-23,50 -80,111 -129,136 c-42,22 -161,33 -219,20 zm126,-181 c46,-22 75,-70 75,-123 c0,-39 15,-57 47,-57 c33,0 91,-56 99,-95 c8,-42 -15,-87 -59,-114 c-48,-30 -79,-26 -131,14 c-26,19 -55,35 -65,35 c-16,0 -224,-152 -396,-289 c-54,-44 -55,-44 -105,19 l-29,36 l116,90 c63,49 128,98 143,109 c190,138 199,151 159,220 c-37,62 -13,131 56,161 c40,17 42,17 90,-6 zm-818,-565 c18,-13 120,-136 251,-304 c23,-29 42,-63 42,-74 c0,-11 -22,-39 -52,-66 c-161,-140 -284,-310 -334,-458 c-22,-65 -104,-225 -151,-295 c-179,-265 -406,-417 -686,-458 c-186,-27 -427,60 -547,198 c-52,59 -114,188 -130,270 c-33,163 22,368 142,534 c136,187 385,337 663,401 c69,16 94,20 230,37 c131,17 309,89 446,180 c80,54 94,58 126,35 z" id="svg_4" fill="#ffffff" fill-opacity="1"/>
<path d="M4028.130081176758,2843.000000000001 c-257,-261 -270,-277 -270,-318 c0,-45 44,-95 85,-95 c40,0 64,16 147,104 l77,81 l1,-66 c0,-132 -44,-312 -115,-467 c-179,-386 -603,-678 -1015,-698 l-105,-5 l81,78 c88,85 104,108 104,148 c0,40 -50,85 -95,85 c-33,0 -50,-13 -183,-139 c-81,-77 -174,-167 -207,-200 l-59,-61 l59,-61 c33,-33 126,-123 207,-200 c133,-126 150,-139 183,-139 c45,0 95,45 95,85 c0,40 -17,64 -94,136 l-70,66 l82,7 c241,20 477,100 674,228 c139,91 308,255 405,395 c62,88 146,262 182,377 c32,98 61,274 61,370 l1,51 l72,-76 c78,-83 102,-99 142,-99 c41,0 85,50 85,95 c0,32 -10,47 -72,114 c-119,125 -322,331 -328,331 c-3,0 -62,-57 -130,-127 z" id="svg_5" fill="#ffffff" fill-opacity="1"/>
</g></g></svg>